<svg viewBox="0 0 270 123" xmlns="http://www.w3.org/2000/svg" fill-rule="evenodd" clip-rule="evenodd" stroke-linejoin="round" stroke-miterlimit="1.414" preserveAspectRatio="xMinYMid" width="33" height="16"><path d="M227.124 93c4.742 0 8.45 3.708 8.45 8.458 0 4.742-3.708 8.45-8.45 8.45-4.742 0-8.458-3.708-8.458-8.45 0-4.75 3.716-8.458 8.458-8.458m-101.458 0c4.75 0 8.458 3.708 8.458 8.458 0 4.742-3.708 8.45-8.458 8.45-4.742 0-8.45-3.708-8.45-8.45 0-4.75 3.708-8.458 8.45-8.458M85.507 0a6.345 6.345 0 00-6.341 6.342v97.225c0 3.325 3.016 6.341 6.341 6.341h20.809c3.291 7.434 10.758 12.684 19.35 12.684 8.591 0 16.066-5.25 19.35-12.684h62.75c3.3 7.434 10.758 12.684 19.358 12.684 8.592 0 16.067-5.25 19.35-12.684h16.583c3.317 0 6.342-3.016 6.342-6.341V54.958c0-2.566-1.7-5.041-4.1-5.95l-31.833-11.95L211.332 2.9c-1.141-1.775-3.233-2.908-5.35-2.9M91.85 12.683h110.633l21.4 33.025a6.435 6.435 0 003.109 2.509l29.725 11.158v37.85H247.8c-1.983-9.592-10.525-16.908-20.675-16.908s-18.75 7.316-20.742 16.908h-60.041c-1.984-9.592-10.525-16.908-20.675-16.908s-18.75 7.316-20.742 16.908H91.849m-37.682 11.107H20.833a4.168 4.168 0 01-4.166-4.167c0-2.3 1.866-4.167 4.166-4.167h33.334a4.168 4.168 0 010 8.334m0-50H20.833a4.168 4.168 0 01-4.166-4.167c0-2.3 1.866-4.167 4.166-4.167h33.334a4.168 4.168 0 010 8.334m0 25h-50A4.168 4.168 0 010 79.165c0-2.3 1.867-4.167 4.167-4.167h50a4.168 4.168 0 010 8.334" fill="#08a500" fill-rule="nonzero"/></svg>