<svg viewBox="0 0 191 123" xmlns="http://www.w3.org/2000/svg" fill-rule="evenodd" clip-rule="evenodd" stroke-linejoin="round" stroke-miterlimit="1.414" preserveAspectRatio="xMinYMid"><path d="M147.958 93c4.742 0 8.45 3.708 8.45 8.458 0 4.742-3.708 8.45-8.45 8.45-4.742 0-8.458-3.708-8.458-8.45 0-4.75 3.716-8.458 8.458-8.458M46.5 93c4.75 0 8.458 3.708 8.458 8.458 0 4.742-3.708 8.45-8.458 8.45-4.742 0-8.45-3.708-8.45-8.45 0-4.75 3.708-8.458 8.45-8.458M6.34 0A6.345 6.345 0 000 6.342v97.225c0 3.325 3.016 6.341 6.341 6.341H27.15c3.291 7.434 10.758 12.684 19.35 12.684 8.591 0 16.066-5.25 19.35-12.684h62.75c3.3 7.434 10.758 12.684 19.358 12.684 8.592 0 16.067-5.25 19.35-12.684h16.583c3.317 0 6.342-3.016 6.342-6.341V54.958c0-2.566-1.7-5.041-4.1-5.95L154.3 37.058 132.166 2.9c-1.141-1.775-3.233-2.908-5.35-2.9M12.683 12.683h110.633l21.4 33.025a6.435 6.435 0 003.109 2.509l29.725 11.158v37.85h-8.917c-1.983-9.592-10.525-16.908-20.675-16.908s-18.75 7.316-20.742 16.908H67.175C65.19 87.633 56.65 80.317 46.5 80.317s-18.75 7.316-20.742 16.908H12.683" fill="#FFC500" fill-rule="nonzero"/></svg>